<?xml version="1.0" encoding="utf-8"?>
<!-- Generator: Adobe Illustrator 17.0.0, SVG Export Plug-In . SVG Version: 6.00 Build 0)  -->
<!DOCTYPE svg PUBLIC "-//W3C//DTD SVG 1.1//EN" "http://www.w3.org/Graphics/SVG/1.1/DTD/svg11.dtd">
<svg version="1.1" id="Layer_2" xmlns="http://www.w3.org/2000/svg" xmlns:xlink="http://www.w3.org/1999/xlink" x="0px" y="0px"
	 width="286.931px" height="146.038px" viewBox="0 0 286.931 146.038" enable-background="new 0 0 286.931 146.038"
	 xml:space="preserve">
<path fill="#DF3222" d="M20.536,20.084h10.662V10.91c0,0-3.967-10.91-15.869-10.91c0,0-10.662,0-15.125,10.91v44.632
	c0,0,3.884,12.214,15.373,11.654c0,0,10.166,2.232,15.373-10.414l0.248-9.918l-10.662-0.248v7.191c0,0,0.496,1.984-4.463,2.975
	c0,0-4.711,0.248-5.207-2.975L10.37,14.133c0,0,1.736-3.719,4.711-3.719c0,0,3.471-0.248,5.207,2.48L20.536,20.084z"/>
<path fill="#DF3222" d="M64.424,36.697c6.695-4.711,7.439-10.662,7.439-10.662l-0.496-14.381C68.392,3.471,60.953,1.24,60.953,1.24
	L39.381,0.992v64.716l10.662,0.248l-0.248-27.523h4.215l9.422,27.523h10.91L64.424,36.697z M58.051,29.247l-8.256,0.259V9.918h7.687
	c0,0,3.118,2.055,3.967,3.755l-0.283,12.177C61.166,25.849,61.449,27.265,58.051,29.247z"/>
<polyline fill="#DF3222" points="80.705,65.494 90.616,65.494 90.616,1.496 80.705,1.496 "/>
<polyline fill="#FFFFFF" points="53.52,144.499 63.431,144.499 63.431,80.502 53.52,80.502 "/>
<polygon fill="#FFFFFF" points="0,144.216 10.194,145.066 10.194,110.235 18.406,133.172 24.636,133.172 31.716,110.802 
	32.565,144.499 42.476,144.499 42.759,79.652 32.848,79.652 21.238,111.085 9.911,79.369 0.566,79.086 "/>
<polygon fill="#DF3222" points="101.943,65.777 112.137,66.626 112.137,31.796 120.349,54.733 126.579,54.733 133.658,32.362 
	134.508,66.06 144.419,66.06 144.702,1.213 134.791,1.213 123.181,32.645 111.854,0.93 102.509,0.647 "/>
<polygon fill="#DF3222" points="155.18,65.777 155.18,1.213 164.808,1.213 164.524,65.777 "/>
<polygon fill="#FFFFFF" points="74.192,79.652 74.475,144.499 84.103,144.216 84.669,109.669 98.262,144.783 107.323,145.066 
	107.04,79.369 97.695,79.936 97.412,113.35 84.386,79.652 "/>
<polygon fill="#DF3222" points="176.135,0.647 176.418,65.494 186.046,65.21 186.612,30.663 200.204,65.777 209.266,66.06 
	208.983,0.364 199.638,0.93 199.355,34.344 186.329,0.647 "/>
<path fill="#DF3222" d="M237.583,0.93l-8.495,0.283l-14.159,64.564l10.194,0.566l2.549-13.592l11.044-0.283l3.398,13.309h10.761
	L237.583,0.93z M229.938,43.123L233.902,25l3.964,18.406L229.938,43.123z"/>
<polygon fill="#DF3222" points="257.406,1.496 257.689,65.494 285.157,65.777 285.157,56.149 267.6,55.583 267.6,1.496 "/>
<path fill="#FFFFFF" d="M136.773,79.086l-19.256,0.283l0.283,65.413h19.539c0,0,9.345-0.566,11.61-11.893l0.283-41.627
	C149.233,91.263,144.702,79.652,136.773,79.086z M138.189,130.907c-0.283,4.248-4.248,3.964-4.248,3.964h-5.664l-0.283-44.742h6.513
	c3.115-0.283,3.964,2.549,3.964,2.549L138.189,130.907z"/>
<path fill="#FFFFFF" d="M178.4,98.625h10.194l0.283-8.495c0,0-3.398-9.911-12.46-11.327h-8.495c0,0-7.363,2.265-10.761,10.761
	v13.876c0,0-2.179,8.173,17.777,14.632c0.39,0.126,0.788,0.252,1.195,0.377c0,0-0.403-1.625,1.386,1.654l0.596,10.434
	c0,0-4.472,9.54-11.329,1.192l-0.298-6.261h-10.434l0.298,7.751c0,0,4.174,11.925,11.03,12.819l13.415-0.596
	c0,0,6.559-3.876,8.347-11.925v-16.098c0,0-2.683-9.242-14.608-12.223c0,0-5.366-1.491-7.453-4.77v-7.751c0,0,5.962-7.453,11.329,0
	L178.4,98.625z"/>
<rect x="200.178" y="78.067" fill="#DF3222" width="86.753" height="67.971"/>
</svg>
